HIERARCHY
ROOT Pelvis
{
	OFFSET 0.000000 0.941512 0.000000
	CHANNELS 6 Xposition Yposition Zposition Zrotation Yrotation Xrotation 
	JOINT Pelvis_L_Hip
	{
		OFFSET 0.000000 0.000000 0.000000
		CHANNELS 3 Zrotation Yrotation Xrotation
		JOINT L_Hip
		{
			OFFSET 0.062321 -0.080322 -0.016990
			CHANNELS 3 Zrotation Yrotation Xrotation
			JOINT L_Knee
			{
				OFFSET 0.093051 -0.381305 -0.029784
				CHANNELS 3 Zrotation Yrotation Xrotation
				JOINT L_Ankle
				{
					OFFSET -0.010371 -0.431000 -0.033614
					CHANNELS 3 Zrotation Yrotation Xrotation
					End Site #name: L_Foot
					{
						OFFSET 0.069299 -0.038670 0.119418
					}
				}
			}
		}
	}
	JOINT Pelvis_R_Hip
	{
		OFFSET 0.000000 0.000000 0.000000
		CHANNELS 3 Zrotation Yrotation Xrotation
		JOINT R_Hip
		{
			OFFSET -0.055334 -0.094904 -0.002373
			CHANNELS 3 Zrotation Yrotation Xrotation
			JOINT R_Knee
			{
				OFFSET -0.064207 -0.384370 -0.019592
				CHANNELS 3 Zrotation Yrotation Xrotation
				JOINT R_Ankle
				{
					OFFSET 0.025418 -0.419734 -0.065953
					CHANNELS 3 Zrotation Yrotation Xrotation
					End Site #name: R_Foot
					{
						OFFSET -0.057233 -0.039888 0.132134
					}
				}
			}
		}
	}
	JOINT Pelvis_Spine1
	{
		OFFSET 0.000000 0.000000 0.000000
		CHANNELS 3 Zrotation Yrotation Xrotation
		JOINT Spine1
		{
			OFFSET -0.005562 0.124093 -0.043360
			CHANNELS 3 Zrotation Yrotation Xrotation
			JOINT Spine2
			{
				OFFSET 0.012244 0.139499 0.029894
				CHANNELS 3 Zrotation Yrotation Xrotation
				JOINT Spine3
				{
					OFFSET -0.002556 0.056561 0.009225
					CHANNELS 3 Zrotation Yrotation Xrotation
					JOINT Spine3_Neck
					{
						OFFSET 0.000000 0.000000 0.000000
						CHANNELS 3 Zrotation Yrotation Xrotation
						JOINT Neck
						{
							OFFSET -0.005205 0.217920 -0.024551
							CHANNELS 3 Zrotation Yrotation Xrotation
							End Site #name: Head
							{
								OFFSET 0.002365 0.091850 0.046637
							}
						}
					}
					JOINT Spine3_L_Collar
					{
						OFFSET 0.000000 0.000000 0.000000
						CHANNELS 3 Zrotation Yrotation Xrotation
						JOINT L_Collar
						{
							OFFSET 0.072225 0.116603 -0.009480
							CHANNELS 3 Zrotation Yrotation Xrotation
							JOINT L_Shoulder
							{
								OFFSET 0.115937 -0.058643 -0.021018
								CHANNELS 3 Zrotation Yrotation Xrotation
								JOINT L_Elbow
								{
									OFFSET 0.021994 -0.254722 -0.024492
									CHANNELS 3 Zrotation Yrotation Xrotation
									End Site #name: L_Wrist
									{
										OFFSET 0.048810 -0.240214 0.103329
									}
								}
							}
						}
					}
					JOINT Spine3_R_Collar
					{
						OFFSET 0.000000 0.000000 0.000000
						CHANNELS 3 Zrotation Yrotation Xrotation
						JOINT R_Collar
						{
							OFFSET -0.073372 0.120704 -0.024611
							CHANNELS 3 Zrotation Yrotation Xrotation
							JOINT R_Shoulder
							{
								OFFSET -0.108089 -0.054969 -0.020504
								CHANNELS 3 Zrotation Yrotation Xrotation
								JOINT R_Elbow
								{
									OFFSET -0.033684 -0.260739 0.009889
									CHANNELS 3 Zrotation Yrotation Xrotation
									End Site #name: R_Wrist
									{
										OFFSET -0.067980 -0.232763 0.118463
									}
								}
							}
						}
					}
				}
			}
		}
	}
}
MOTION
Frames: 13
Frame Time: 0.041667
0.085597 0.899471 1.089008 -3.539345 3.392515 -8.182736 0.000000 0.000000 0.000000 -9.352365 7.506357 21.016497 6.455992 -1.405411 10.791869 11.230062 -16.388142 -24.243545 0.000000 0.000000 0.000000 2.193235 7.340474 -41.126750 -2.746585 1.421552 11.950969 16.658020 13.217862 23.173442 0.000000 0.000000 0.000000 4.990479 -0.663871 -2.429497 -0.929483 1.727685 33.689423 2.032475 -2.270282 -31.788578 0.000000 0.000000 0.000000 4.882511 -6.111329 40.515515 0.000000 0.000000 0.000000 24.762094 -1.870168 3.436018 -6.324833 -0.578564 -6.091679 -6.852791 -5.427356 -8.071704 0.000000 0.000000 0.000000 -18.956698 -13.150394 13.588479 7.623585 -2.097208 13.450252 -5.646778 -4.567161 7.818390 
0.087668 0.884573 1.139226 -3.300245 5.015843 -6.501687 0.000000 0.000000 0.000000 -8.876140 7.727456 22.272115 6.732912 -1.533895 11.582300 12.408135 -17.115471 -26.029993 0.000000 0.000000 0.000000 1.467810 6.828966 -40.674135 -3.265037 0.987422 5.348200 17.896234 9.951457 28.081607 0.000000 0.000000 0.000000 4.641496 -0.435674 -3.747706 -1.653205 1.937017 33.355992 2.336245 -1.928461 -32.152780 0.000000 0.000000 0.000000 5.329671 -6.806163 40.245897 0.000000 0.000000 0.000000 24.473810 -1.447566 3.889342 -5.979072 -0.709899 -6.952731 -8.112784 -6.524399 -9.313597 0.000000 0.000000 0.000000 -19.375513 -13.950604 14.206745 8.556023 -2.677363 16.125766 -5.879651 -4.786633 8.414304 
0.088403 0.870098 1.191998 -2.989528 6.522970 -4.096570 0.000000 0.000000 0.000000 -8.141259 7.661717 22.878359 6.687186 -1.610582 12.395730 12.802217 -18.090139 -26.660377 0.000000 0.000000 0.000000 0.387351 6.464051 -41.745452 -2.873225 0.776139 3.778597 17.453582 6.754928 30.380463 0.000000 0.000000 0.000000 4.204450 -0.297396 -4.318695 -2.212148 2.089402 33.282409 2.762269 -1.493825 -32.556169 0.000000 0.000000 0.000000 5.548410 -7.059971 38.758528 0.000000 0.000000 0.000000 24.395794 -1.558626 3.939328 -6.056910 -0.838466 -7.765912 -8.938824 -7.520337 -10.846235 0.000000 0.000000 0.000000 -19.349857 -13.733621 13.893160 9.721939 -3.054296 17.562069 -5.806577 -4.943475 9.293633 
0.087953 0.856619 1.250382 -2.499304 7.789063 -1.174329 0.000000 0.000000 0.000000 -7.217544 7.501516 23.352280 6.696943 -1.693024 13.149180 12.023532 -20.403592 -25.841719 0.000000 0.000000 0.000000 -0.977940 6.203471 -44.391441 -1.292458 0.807318 9.189972 16.143982 5.497199 29.428720 0.000000 0.000000 0.000000 3.758304 -0.204362 -4.532797 -2.508109 2.147553 33.523833 3.048848 -1.184620 -32.817984 0.000000 0.000000 0.000000 5.604829 -6.931177 36.359126 0.000000 0.000000 0.000000 24.415308 -2.078552 3.637772 -6.263296 -0.934364 -8.337621 -9.492377 -8.385962 -12.355090 0.000000 0.000000 0.000000 -18.731525 -13.102307 13.069906 10.505597 -3.083440 17.427119 -5.482971 -4.966110 9.987099 
0.086185 0.844145 1.316747 -2.397450 8.607452 2.342662 0.000000 0.000000 0.000000 -5.624934 7.154685 23.865246 6.432037 -1.650024 13.215904 9.240018 -23.399682 -22.368735 0.000000 0.000000 0.000000 -1.735490 6.167091 -47.179097 1.631266 0.313431 17.410089 13.537154 8.163147 22.383416 0.000000 0.000000 0.000000 3.990724 -0.248316 -4.621236 -2.546282 2.114142 33.702706 3.116659 -0.917519 -33.396524 0.000000 0.000000 0.000000 5.147734 -6.238827 33.759811 0.000000 0.000000 0.000000 24.353439 -2.574221 3.297979 -6.648522 -0.919662 -8.129486 -9.893948 -9.157340 -13.771028 0.000000 0.000000 0.000000 -18.218387 -12.093009 12.063311 10.755116 -3.018500 17.083973 -4.853400 -4.510048 9.000403 
0.082433 0.838516 1.386564 -3.905004 8.440822 6.122031 0.000000 0.000000 0.000000 -3.116296 6.094780 22.636158 5.551630 -1.643860 15.113662 3.376013 -24.259217 -14.310300 0.000000 0.000000 0.000000 0.202227 7.438181 -50.716288 3.567584 -0.283069 24.897311 8.721157 9.401525 12.172601 0.000000 0.000000 0.000000 5.810276 -0.764629 -3.626051 -2.405606 2.069804 33.174291 3.394214 -0.352646 -34.395426 0.000000 0.000000 0.000000 4.074211 -4.960187 31.100426 0.000000 0.000000 0.000000 23.766549 -2.586747 3.155406 -7.847808 -0.677839 -6.431467 -9.034617 -9.347054 -15.728508 0.000000 0.000000 0.000000 -17.467323 -10.176235 10.398521 9.669467 -2.712869 16.072176 -3.792882 -3.507207 6.501110 
0.078622 0.846184 1.454789 -5.868498 7.027810 8.849967 0.000000 0.000000 0.000000 -0.954748 4.495113 18.339257 3.284713 -1.699707 22.954621 -5.226132 -20.636778 -1.219335 0.000000 0.000000 0.000000 3.793218 9.454435 -52.234827 3.450265 -0.113407 30.332476 5.856965 10.478390 5.672032 0.000000 0.000000 0.000000 6.928763 -1.408960 -1.335319 -1.724972 1.882127 32.639418 3.814669 0.184815 -34.788279 0.000000 0.000000 0.000000 2.957328 -3.626984 28.515137 0.000000 0.000000 0.000000 23.803770 -3.240765 2.509696 -10.170064 -0.159521 -3.482169 -6.928499 -8.449947 -17.069738 0.000000 0.000000 0.000000 -17.147935 -7.004485 8.116603 8.731556 -2.024009 13.032833 -2.547936 -1.945876 2.489220 
0.075853 0.863595 1.517326 -6.959359 6.005326 10.387423 0.000000 0.000000 0.000000 0.399229 2.140928 9.506185 -0.245825 -1.319125 37.939149 -9.522806 -12.798828 8.125213 0.000000 0.000000 0.000000 6.430417 10.121765 -49.220792 3.255672 0.049526 30.401656 4.021968 12.350440 0.905427 0.000000 0.000000 0.000000 6.862291 -1.855134 1.286397 -1.450339 1.822834 31.683130 4.029584 0.492890 -34.509684 0.000000 0.000000 0.000000 2.424886 -2.969277 26.734898 0.000000 0.000000 0.000000 24.047019 -4.664056 1.312163 -11.586255 0.250933 -1.513150 -6.512810 -7.714241 -15.747948 0.000000 0.000000 0.000000 -17.415561 -4.184628 6.242967 8.183652 -1.340785 9.747455 -1.143945 0.742287 -4.430253 
0.075222 0.885273 1.572867 -7.480706 5.207210 11.819915 0.000000 0.000000 0.000000 1.092615 -0.745431 -2.790296 -4.231663 0.372138 54.892466 -7.146376 -7.704058 7.259638 0.000000 0.000000 0.000000 8.372719 9.792307 -44.061786 2.573140 0.325366 26.240434 3.094314 15.086090 -2.334238 0.000000 0.000000 0.000000 6.613908 -1.995331 2.398836 -2.183891 2.176263 30.412775 4.177588 1.284139 -33.641601 0.000000 0.000000 0.000000 2.274443 -2.752320 25.163532 0.000000 0.000000 0.000000 23.525090 -4.580559 1.307942 -11.615902 0.240267 -1.638229 -7.784030 -7.767163 -13.605789 0.000000 0.000000 0.000000 -17.950375 -2.627979 5.250215 7.256514 -0.763345 6.782363 -0.160642 4.239193 -13.197064 
0.076367 0.908443 1.628524 -7.460380 3.818668 12.256131 0.000000 0.000000 0.000000 1.752607 -3.289644 -14.055916 -7.275152 3.013912 66.007855 -3.900554 -7.249276 2.567481 0.000000 0.000000 0.000000 10.773632 8.953173 -37.161969 0.105892 1.146116 21.031778 3.126287 19.295617 -4.206960 0.000000 0.000000 0.000000 5.576894 -1.735574 2.526821 -3.241466 2.686103 29.504848 4.520840 2.467779 -32.799708 0.000000 0.000000 0.000000 2.068872 -2.581519 24.536451 0.000000 0.000000 0.000000 22.729985 -3.159214 2.336708 -11.580078 0.312227 -1.343432 -8.532187 -7.779389 -12.352451 0.000000 0.000000 0.000000 -18.916744 -1.543535 4.677217 6.736990 -0.304477 4.329073 -0.219386 7.340786 -21.548132 
0.079548 0.930287 1.687207 -6.905887 2.311837 11.184359 0.000000 0.000000 0.000000 2.217606 -5.175495 -22.745046 -8.479920 4.555046 69.244826 -0.151669 -6.491345 -3.048567 0.000000 0.000000 0.000000 13.144153 7.194601 -28.377836 -3.292997 1.891058 15.253263 4.355228 23.611645 -3.832841 0.000000 0.000000 0.000000 4.229193 -1.366728 2.602050 -4.395713 3.223125 28.846230 4.740621 3.494259 -32.235825 0.000000 0.000000 0.000000 1.885788 -2.509203 25.082276 0.000000 0.000000 0.000000 22.168478 -1.428779 3.622809 -11.268225 0.569525 -0.016353 -8.753479 -7.589855 -11.431849 0.000000 0.000000 0.000000 -19.930340 -0.557990 4.170565 6.758150 0.082588 2.354291 -0.669189 9.500235 -27.702262 
0.085584 0.946281 1.747308 -5.583565 1.327161 9.500306 0.000000 0.000000 0.000000 1.869295 -6.739695 -29.530502 -7.935939 4.038799 65.523863 2.284672 -4.774104 -6.301017 0.000000 0.000000 0.000000 13.849922 4.787339 -19.550290 -6.086105 2.112947 9.899340 5.686436 26.418042 -2.724327 0.000000 0.000000 0.000000 3.044468 -0.992836 2.258602 -5.616957 3.751912 28.343672 4.426317 3.941436 -31.813593 0.000000 0.000000 0.000000 1.759760 -2.508328 26.016716 0.000000 0.000000 0.000000 21.972043 0.026288 4.756065 -10.332640 0.849423 1.701212 -8.927697 -7.411973 -10.612521 0.000000 0.000000 0.000000 -20.832367 0.104214 3.862488 7.258057 0.469458 0.599294 -0.579769 11.105668 -31.206948 
0.093551 0.953625 1.808267 -4.072060 0.500304 7.553538 0.000000 0.000000 0.000000 1.244711 -7.765987 -33.434475 -5.905625 2.202513 54.910841 2.622087 -3.680445 -6.381097 0.000000 0.000000 0.000000 12.926047 2.291146 -11.026738 -7.461880 1.869608 5.361501 5.661749 28.452711 -3.540437 0.000000 0.000000 0.000000 2.196537 -0.715959 1.860812 -6.950061 4.345744 28.138635 4.086028 4.302203 -31.694331 0.000000 0.000000 0.000000 1.243321 -2.187120 26.844812 0.000000 0.000000 0.000000 21.862232 1.204346 5.677000 -9.241444 1.044138 3.214297 -8.800976 -6.923295 -9.383689 0.000000 0.000000 0.000000 -21.398173 0.934236 3.340424 7.757084 0.808199 -0.822027 0.096440 12.291220 -32.409606 
